<svg xmlns="http://www.w3.org/2000/svg" viewBox="0 0 200 200" role="img" aria-label="Expo City Dubai">
  <g transform="translate(100,100)">
    <g id="ringDot">
      <circle r="9" fill="#FFC107" />
    </g>
    <g>
      <use href="#ringDot" transform="rotate(0) translate(0,-70)" />
      <use href="#ringDot" transform="rotate(15) translate(0,-70)" />
      <use href="#ringDot" transform="rotate(30) translate(0,-70)" />
      <use href="#ringDot" transform="rotate(45) translate(0,-70)" />
      <use href="#ringDot" transform="rotate(60) translate(0,-70)" />
      <use href="#ringDot" transform="rotate(75) translate(0,-70)" />
      <use href="#ringDot" transform="rotate(90) translate(0,-70)" />
      <use href="#ringDot" transform="rotate(105) translate(0,-70)" />
      <use href="#ringDot" transform="rotate(120) translate(0,-70)" />
      <use href="#ringDot" transform="rotate(135) translate(0,-70)" />
      <use href="#ringDot" transform="rotate(150) translate(0,-70)" />
      <use href="#ringDot" transform="rotate(165) translate(0,-70)" />
      <use href="#ringDot" transform="rotate(180) translate(0,-70)" />
      <use href="#ringDot" transform="rotate(195) translate(0,-70)" />
      <use href="#ringDot" transform="rotate(210) translate(0,-70)" />
      <use href="#ringDot" transform="rotate(225) translate(0,-70)" />
      <use href="#ringDot" transform="rotate(240) translate(0,-70)" />
      <use href="#ringDot" transform="rotate(255) translate(0,-70)" />
      <use href="#ringDot" transform="rotate(270) translate(0,-70)" />
      <use href="#ringDot" transform="rotate(285) translate(0,-70)" />
      <use href="#ringDot" transform="rotate(300) translate(0,-70)" />
      <use href="#ringDot" transform="rotate(315) translate(0,-70)" />
      <use href="#ringDot" transform="rotate(330) translate(0,-70)" />
      <use href="#ringDot" transform="rotate(345) translate(0,-70)" />
    </g>
  </g>
</svg>
